<svg xmlns="http://www.w3.org/2000/svg" viewBox="0 0 512 512">
  <defs>
    <linearGradient id="gold" x1="0%" y1="0%" x2="100%" y2="100%">
      <stop offset="0%" stop-color="#F2CA52"/>
      <stop offset="100%" stop-color="#D4AF37"/>
    </linearGradient>
    <linearGradient id="sea" x1="0%" y1="0%" x2="0%" y2="100%">
      <stop offset="0%" stop-color="#48B6DF"/>
      <stop offset="100%" stop-color="#031323"/>
    </linearGradient>
  </defs>
  
  <!-- Outer Coin Rim -->
  <circle cx="256" cy="256" r="240" fill="url(#gold)" />
  <circle cx="256" cy="256" r="200" fill="#031323" />
  
  <!-- Land / Mountains -->
  <path d="M 56 256 L 160 140 L 256 220 L 330 150 L 456 256 Z" fill="#D97706" />
  <path d="M 56 256 L 120 180 L 180 230 L 250 180 L 350 256 Z" fill="#EBB847" opacity="0.6"/>
  
  <!-- Sea / Wave -->
  <path d="M 56 256 Q 160 220 256 256 T 456 256 L 456 456 A 200 200 0 0 1 56 456 Z" fill="url(#sea)" />
  <path d="M 56 280 Q 160 250 256 280 T 456 280 L 456 456 A 200 200 0 0 1 56 456 Z" fill="#48B6DF" opacity="0.4" />
  
  <!-- Compass / Finance Ticks -->
  <path d="M 256 16 L 256 40 M 256 472 L 256 496 M 16 256 L 40 256 M 472 256 L 496 256" stroke="url(#gold)" stroke-width="16" stroke-linecap="round"/>
</svg>